#!OML:ASF H:\Terrain\Patient Classification 1\Terrain2\Thursday\justin.ASF
:FULLY-SPECIFIED
:DEGREES
3542
root -13.1 17.4574 6.57005 720.043 -543.012 4.3516
lowerback 4.43279 1.01681 2.34115
upperback 2.16864 1.63537 2.41872
thorax -0.26495 0.895666 1.09405
lowerneck -12.9967 0.0672688 -10.2733
upperneck 38.0752 -4.35542 6.54637
head 16.0362 -4.00818 3.50636
rclavicle -1.09332e-015 3.16068e-014
rhumerus -33.0324 -12.9728 -77.2664
rradius 24.5386
rwrist -5.51566
rhand -18.0947 14.1233
rfingers 7.12502
rthumb 8.17895 -15.6984
lclavicle -1.09332e-015 3.16068e-014
lhumerus -35.9908 11.6686 84.6454
lradius 24.8654
lwrist -2.29236
lhand -14.1571 24.8285
lfingers 7.12502
lthumb 11.9776 54.4658
rfemur 7.46638 2.38188 24.6895
rtibia 33.3932
rfoot -12.5833 -1.47632
rtoes -3.45656
lfemur -21.1951 3.89101 -14.7808
ltibia 20.8139
lfoot -3.12387 -14.8409
ltoes -5.76414
3543
root -13.1239 17.4807 6.49493 720.053 -542.887 4.48079
lowerback 4.27167 0.936963 2.49068
upperback 2.32358 1.53495 2.4698
thorax -0.0133323 0.85366 1.07331
lowerneck -13.0967 0.0279003 -10.331
upperneck 37.9161 -4.33116 6.60871
head 15.9797 -3.97051 3.54947
rclavicle -7.45443e-017 -1.17283e-014
rhumerus -32.7627 -12.8285 -77.4075
rradius 24.9184
rwrist -5.78389
rhand -17.9978 13.432
rfingers 7.12502
rthumb 8.27242 -16.386
lclavicle -7.45443e-017 -1.17283e-014
lhumerus -35.2821 11.7304 84.5794
lradius 24.9462
lwrist -3.21268
lhand -14.8308 23.3753
lfingers 7.12502
lthumb 11.3279 53.0494
rfemur 6.3586 1.8947 24.5855
rtibia 35.5789
rfoot -11.2493 -1.17028
rtoes -4.57652
lfemur -20.6983 3.89583 -14.721
ltibia 20.3403
lfoot -2.95023 -15.0467
ltoes -6.11698
3544
root -13.1472 17.5038 6.41835 720.015 -542.731 4.34379
lowerback 4.41388 0.848128 2.30379
upperback 2.32281 1.41419 2.4506
thorax -0.0973749 0.790816 1.16024
lowerneck -13.2364 0.0308307 -10.3882
upperneck 37.9159 -4.37308 6.84046
head 16.0262 -3.96121 3.65587
rclavicle -1.41386e-014 -3.20043e-014
rhumerus -32.7414 -12.4471 -77.5999
rradius 25.4054
rwrist -6.23138
rhand -17.6343 13.6576
rfingers 7.12502
rthumb 8.62321 -16.1463
lclavicle -1.41386e-014 -3.20043e-014
lhumerus -34.8293 11.6715 84.4216
lradius 25.1811
lwrist -4.33076
lhand -16.5528 22.3786
lfingers 7.12502
lthumb 9.66686 52.1368
rfemur 5.28541 1.34366 24.1743
rtibia 37.7562
rfoot -9.62403 -0.826716
rtoes -4.31035
lfemur -20.1687 3.94289 -14.9789
ltibia 19.8854
lfoot -3.12011 -15.3848
ltoes -8.62252
3545
root -13.1725 17.524 6.33905 720.143 -542.799 4.28235
lowerback 4.49988 0.830194 2.18982
upperback 2.17887 1.38443 2.44096
thorax -0.29539 0.769559 1.21174
lowerneck -13.3691 -5.04191 -9.09308
upperneck 38.6285 -2.08245 4.44159
head 16.3118 -0.143507 3.63683
rclavicle -1.40143e-014 -1.07344e-014
rhumerus -32.8716 -11.9805 -77.8147
rradius 25.8337
rwrist -6.56509
rhand -17.4691 14.1621
rfingers 7.12502
rthumb 8.78265 -15.6352
lclavicle -1.40143e-014 -1.07344e-014
lhumerus -34.6019 10.8567 84.6311
lradius 25.4579
lwrist -3.39217
lhand -18.8882 19.703
lfingers 7.12502
lthumb 7.41304 49.5531
rfemur 3.93602 1.06837 23.8399
rtibia 39.9823
rfoot -7.81264 -0.404433
rtoes -3.11624
lfemur -19.714 4.06763 -15.1354
ltibia 19.2901
lfoot -3.04634 -15.5502
ltoes -9.45803
3546
root -13.1937 17.5374 6.26301 720.128 -542.83 3.96921
lowerback 4.45952 0.828657 1.85518
upperback 2.22291 1.35762 2.32677
thorax -0.232334 0.751493 1.28433
lowerneck -13.3226 -4.98079 -8.97692
upperneck 38.4596 -2.07045 4.42203
head 16.2043 -0.134326 3.59604
rclavicle -9.61621e-015 6.95746e-015
rhumerus -32.793 -11.5757 -78.1247
rradius 26.2896
rwrist -6.87046
rhand -17.5518 13.6814
rfingers 7.12502
rthumb 8.70283 -16.1192
lclavicle -9.61621e-015 6.95746e-015
lhumerus -34.2681 9.44751 85.1369
lradius 26.0219
lwrist -1.15102
lhand -20.0483 15.1393
lfingers 7.12502
lthumb 6.29321 45.0258
rfemur 2.6448 0.772891 23.2324
rtibia 42.2751
rfoot -6.08193 -0.00209508
rtoes -1.74744
lfemur -19.0508 4.14336 -15.5467
ltibia 18.5318
lfoot -2.39297 -15.6217
ltoes -7.40525
3547
root -13.2159 17.5484 6.18953 720.015 -542.8 3.44726
lowerback 4.52683 0.812047 1.32422
upperback 2.30336 1.30632 2.17669
thorax -0.194863 0.719887 1.42974
lowerneck -13.3001 -4.93712 -8.91502
upperneck 38.2752 -2.10788 4.48814
head 16.1025 -0.144611 3.59342
rclavicle 3.75206e-015 -4.77083e-015
rhumerus -32.6932 -11.1522 -78.3973
rradius 26.7433
rwrist -7.23286
rhand -17.5786 13.3972
rfingers 7.12502
rthumb 8.67702 -16.4044
lclavicle 3.75206e-015 -4.77083e-015
lhumerus -34.0218 8.61623 85.3168
lradius 26.9736
lwrist -0.758975
lhand -14.1449 24.9761
lfingers 7.12502
lthumb 11.9893 54.6127
rfemur 1.43297 0.282009 22.3455
rtibia 44.5941
rfoot -4.47966 0.399955
rtoes 0.287284
lfemur -18.2406 4.24395 -16.205
ltibia 17.6354
lfoot -1.56648 -15.7171
ltoes -4.32219
3548
root -13.2409 17.56 6.12125 719.92 -542.785 3.1665
lowerback 4.87775 0.798613 0.915185
upperback 2.27731 1.2819 2.21406
thorax -0.426241 0.704829 1.69216
lowerneck -13.4605 -4.93033 -8.93531
upperneck 38.2102 -2.09923 4.43111
head 16.107 -0.163963 3.56733
rclavicle -6.16232e-015 1.15295e-014
rhumerus -32.7398 -10.7872 -78.394
rradius 27.2757
rwrist -7.35568
rhand -17.4719 13.6935
rfingers 7.12502
rthumb 8.77998 -16.1039
lclavicle -6.16232e-015 1.15295e-014
lhumerus -33.9265 8.02335 85.5228
lradius 27.9007
lwrist -0.9559
lhand -11.1732 28.7142
lfingers 7.12502
lthumb 14.8536 58.1618
rfemur 0.181253 -0.152495 21.7459
rtibia 46.8747
rfoot -2.88154 0.780473
rtoes 3.41048
lfemur -17.4265 4.47506 -16.6353
ltibia 16.6284
lfoot -0.954491 -15.781
ltoes -2.77708
3549
root -13.2618 17.5716 6.05461 719.818 -542.782 2.75793
lowerback 5.08168 0.863539 0.420748
upperback 2.46949 1.3532 2.14202
thorax -0.353232 0.740086 1.89056
lowerneck -14.0775 -4.97024 -8.84535
upperneck 38.0549 -2.2785 4.46124
head 16.1895 -0.259327 3.51874
rclavicle -8.94531e-016 1.66979e-014
rhumerus -32.4161 -10.776 -78.4552
rradius 27.8907
rwrist -7.26779
rhand -17.2476 13.9455
rfingers 7.12502
rthumb 8.99646 -15.8427
lclavicle -8.94531e-016 1.66979e-014
lhumerus -33.2912 6.76553 85.948
lradius 28.6871
lwrist -0.153408
lhand -11.0457 28.9028
lfingers 7.12502
lthumb 14.9764 58.3412
rfemur -1.04393 -0.476886 21.0617
rtibia 49.0897
rfoot -1.39096 1.01326
rtoes 4.50521
lfemur -16.6958 4.65533 -17.187
ltibia 15.8028
lfoot -0.898273 -15.7284
ltoes -3.85498
3550
root -13.275 17.5823 5.98803 719.777 -542.73 2.48566
lowerback 5.16384 0.745474 -0.0317239
upperback 2.3658 1.169 2.14874
thorax -0.508386 0.641884 2.15928
lowerneck -13.729 -4.80979 -8.959
upperneck 37.8157 -2.08434 4.53135
head 15.9647 -0.187911 3.58682
rclavicle -1.8487e-014 -2.18663e-014
rhumerus -32.6173 -10.0094 -78.7082
rradius 28.5675
rwrist -7.63729
rhand -17.0807 14.0684
rfingers 7.12502
rthumb 9.1575 -15.7128
lclavicle -1.8487e-014 -2.18663e-014
lhumerus -33.3812 6.02843 86.0838
lradius 29.5785
lwrist 0.717668
lhand -11.2296 29.038
lfingers 7.12502
lthumb 14.7993 58.4896
rfemur -2.25792 -0.811957 20.615
rtibia 51.2061
rfoot -0.512843 0.987025
rtoes 4.99394
lfemur -16.1568 4.9233 -17.562
ltibia 15.2955
lfoot -0.953435 -15.8021
ltoes -5.16658
3551
root -13.2839 17.5871 5.93058 719.699 -542.568 2.71485
lowerback 5.53606 0.618687 0.0850765
upperback 2.25317 1.014 2.19325
thorax -0.824341 0.567175 2.14237
lowerneck -13.6426 -4.70563 -8.75047
upperneck 37.6675 -1.98082 4.38691
head 15.8485 -0.140867 3.49275
rclavicle -3.2551e-015 2.22639e-014
rhumerus -32.8162 -9.42049 -79.1251
rradius 29.276
rwrist -8.33343
rhand -17.2872 14.0884
rfingers 7.12502
rthumb 8.95817 -15.7014
lclavicle -3.2551e-015 2.22639e-014
lhumerus -33.2947 5.45347 85.9619
lradius 30.1792
lwrist 0.999074
lhand -12.9287 26.3891
lfingers 7.12502
lthumb 13.162 55.9537
rfemur -3.34819 -1.3316 20.7445
rtibia 53.1974
rfoot -0.349158 0.782424
rtoes 7.34257
lfemur -15.6704 5.19262 -17.3477
ltibia 14.9039
lfoot -0.872943 -15.9902
ltoes -5.60551
3552
root -13.2969 17.5901 5.87523 719.59 -542.539 2.67415
lowerback 5.93991 0.539131 -0.135742
upperback 2.1927 0.903147 2.21586
thorax -1.1105 0.512903 2.29214
lowerneck -13.691 -4.62236 -8.4415
upperneck 37.5992 -1.87868 4.12439
head 15.8032 -0.0974555 3.33429
rclavicle 7.45443e-016 -3.97569e-016
rhumerus -32.8255 -8.74864 -79.4857
rradius 29.904
rwrist -8.78375
rhand -17.7936 13.8899
rfingers 7.12502
rthumb 8.46956 -15.9202
lclavicle 7.45443e-016 -3.97569e-016
lhumerus -33.1227 5.00263 85.8402
lradius 30.8616
lwrist 0.939944
lhand -16.7024 19.7668
lfingers 7.12502
lthumb 9.52251 49.5316
rfemur -4.40473 -1.86423 20.5149
rtibia 55.0945
rfoot -0.76132 0.461749
rtoes 7.99243
lfemur -15.155 5.29773 -17.409
ltibia 14.5135
lfoot -0.694433 -15.976
ltoes -4.45044
